<?xml version="1.0" standalone="no"?>
<!DOCTYPE svg PUBLIC "-//W3C//DTD SVG 20010904//EN"
 "http://www.w3.org/TR/2001/REC-SVG-20010904/DTD/svg10.dtd">
<svg version="1.0" xmlns="http://www.w3.org/2000/svg"
 width="135.000000pt" height="50.000000pt" viewBox="0 0 135.000000 50.000000"
 preserveAspectRatio="xMidYMid meet">

<g transform="translate(0.000000,50.000000) scale(0.100000,-0.100000)"
fill="#000000" stroke="none">
<path d="M123 357 c-113 -113 -113 -123 0 -235 112 -111 121 -111 234 1 112
112 112 120 -1 233 -113 113 -121 113 -233 1z m127 -56 c0 -29 1 -29 36 -19
36 10 59 3 36 -11 -9 -5 -9 -14 1 -40 11 -29 10 -34 -7 -47 -24 -17 -28 -17
-52 0 -17 13 -18 18 -7 45 6 17 10 31 9 31 -2 0 -17 -5 -35 -11 -31 -11 -31
-12 -16 -36 19 -28 15 -47 -14 -63 -17 -8 -24 -7 -41 10 -17 17 -18 24 -9 42
8 15 8 22 -1 28 -16 10 -4 16 43 25 34 7 37 10 37 41 0 19 5 34 10 34 6 0 10
-13 10 -29z"/>
<path d="M276 235 c-4 -10 1 -15 14 -15 13 0 18 5 14 15 -4 8 -10 15 -14 15
-4 0 -10 -7 -14 -15z"/>
<path d="M176 215 c-3 -9 0 -15 9 -15 9 0 12 6 9 15 -4 8 -7 15 -9 15 -2 0 -5
-7 -9 -15z"/>
<path d="M550 330 c0 -82 3 -100 15 -100 8 0 15 5 15 12 0 9 3 9 12 0 33 -33
88 2 88 55 0 50 -57 82 -88 51 -9 -9 -12 -2 -12 35 0 35 -4 47 -15 47 -12 0
-15 -18 -15 -100z m94 -6 c9 -8 16 -22 16 -29 0 -13 -26 -45 -36 -45 -39 0
-59 60 -26 79 23 14 28 14 46 -5z"/>
<path d="M742 344 c-18 -12 -22 -24 -20 -52 4 -44 39 -69 81 -58 38 9 35 29
-3 21 -19 -4 -36 -2 -45 5 -26 22 -16 30 35 30 56 0 65 15 30 50 -24 24 -48
25 -78 4z m66 -26 c3 -14 -3 -18 -26 -18 -35 0 -45 9 -30 27 15 19 52 12 56
-9z"/>
<path d="M882 348 c-23 -23 -13 -47 24 -63 42 -17 37 -40 -8 -31 -21 4 -28 2
-25 -7 5 -15 31 -21 63 -13 37 10 33 54 -6 67 -37 13 -42 44 -6 35 28 -7 45 9
20 18 -25 9 -49 7 -62 -6z"/>
<path d="M1000 295 c0 -37 4 -65 10 -65 6 0 10 15 10 34 0 47 9 66 31 66 10 0
19 7 19 15 0 18 -11 19 -29 3 -11 -10 -14 -10 -18 0 -12 32 -23 6 -23 -53z"/>
<path d="M1110 340 c-51 -51 5 -130 74 -104 29 11 17 23 -21 21 -29 -1 -38 2
-41 16 -3 14 4 17 42 17 38 0 46 3 46 18 0 25 -31 52 -58 52 -12 0 -31 -9 -42
-20z m69 -13 c14 -18 4 -27 -31 -27 -26 0 -37 17 -21 33 11 12 40 8 52 -6z"/>
<path d="M1252 348 c-23 -23 -13 -47 24 -63 42 -17 37 -40 -8 -31 -21 4 -28 2
-25 -7 5 -15 31 -21 63 -13 37 10 33 54 -6 67 -37 13 -42 44 -6 35 28 -7 45 9
20 18 -25 9 -49 7 -62 -6z"/>
</g>
</svg>
